<?xml version="1.0" encoding="utf-8"?>
<!-- Generator: Adobe Illustrator 23.1.1, SVG Export Plug-In . SVG Version: 6.00 Build 0)  -->
<svg version="1.1" id="Calque_1" xmlns="http://www.w3.org/2000/svg" xmlns:xlink="http://www.w3.org/1999/xlink" x="0px" y="0px"
	 viewBox="0 0 419.53 297.64" style="enable-background:new 0 0 419.53 297.64;" xml:space="preserve">
<style type="text/css">
	.st0{fill:#0072B4;}
	.st1{fill:#FFFFFF;}
	.st2{font-family:'Futura-Medium';}
	.st3{font-size:12.7506px;}
	.st4{font-family:'Sana';}
	.st5{font-size:22px;}
</style>
<g>
	<g>
		<path class="st0" d="M230.05,78.67c-0.23-0.06-24.53-6.68-50.57,1.14c-0.08,0.03-11.34,4.15-26.14,3.37v62.26
			c0,5.74,0.92,11.28,2.74,16.47c4.77,13.65,16.33,32.48,44.28,44.69c0.1,0.05,5.21,2.83,13.7,0.32
			c5.47-1.62,24.35-11.35,36.77-28.38c6.89-9.45,10.53-20.76,10.53-32.7V83.25C258.92,83.62,249.34,84.44,230.05,78.67z"/>
		<path class="st0" d="M231.7,73.96c0,0-25.98-7.27-54.22,1.21c0,0-12.12,4.51-28.25,3.54v66.95c0,6.03,0.96,12.04,2.95,17.74
			c4.69,13.42,16.75,34.53,47.5,47.96c0,0,5.56,3.15,14.97,0.37c6.59-1.95,26.48-12.62,39.48-30.46
			c7.44-10.2,11.33-22.56,11.33-35.19V78.72C265.46,78.72,255.48,81.08,231.7,73.96z M262.35,145.84c0,12.16-3.71,23.67-10.72,33.29
			c-12.57,17.24-31.73,27.11-37.29,28.75c-2.77,0.82-5.19,1.1-7.21,1.1c-4.5,0-7.06-1.41-7.21-1.49
			c-28.23-12.32-39.94-31.41-44.78-45.25c-1.85-5.3-2.79-10.95-2.79-16.8V82.12l0.53,0.03c14.85,0.89,26.18-3.25,26.29-3.29
			c26.36-7.92,50.92-1.22,51.16-1.15c21.87,6.55,31.32,4.48,31.41,4.46l0.61-0.14l0,0.63V145.84z"/>
	</g>
	<path class="st0" d="M173.59,38.17c1.57,1.01,3.16,1.8,4.44,2.94c1.05,0.94,1.81,2.24,2.53,3.48c0.77,1.34,1.33,2.79,2.2,4.68
		c2.42-6.66,3.76-7.92,7.32-7.27c2.28,0.41,3.64,2.2,3.65,4.84c-3.4-2.19-6.42-1.06-6.87,3.04c-0.34,3.03,0.32,6.17,0.65,9.25
		c0.04,0.36,0.8,0.69,1.27,0.95c0.21,0.11,0.53,0.01,0.81,0.02c4.08,0.08,4.91-0.93,4.29-4.97c-1.9-0.43-3.74-0.85-5.58-1.27
		c-0.01-0.28-0.01-0.57-0.02-0.85c1.48-0.5,2.96-1,4.54-1.53c0.52-0.98,1.14-2.15,2.09-3.91c0.89,1.66,1.5,2.79,2.15,4.01
		c1.34,0.41,2.89,0.89,4.45,1.36c0,0.29,0,0.57,0,0.86c-1.82,0.46-3.64,0.92-5.81,1.47c0.16,1.06,0.3,2.45,0.62,3.8
		c0.09,0.37,0.7,0.87,1.09,0.89c1.89,0.09,3.79,0.04,6.1,0.04c0.32-4.13,0.66-7.97,0.86-11.82c0.02-0.42-0.65-1-1.13-1.3
		c-0.63-0.39-1.39-0.57-2.23-0.9c1.02-1.01,1.78-1.75,2.61-2.56c-0.63-3.4-2.13-4.12-6.52-2.95c0.74-3.3,2.59-4.36,6.85-3.67
		c-2.69-4.3-1.04-8.05,0.93-11.88c1.09-2.11,1.71-4.45,2.34-6.13c1.13,2.55,2.47,5.51,3.77,8.48c1.36,3.13,1.78,6.27-0.02,9.07
		c1.64,0.34,3.36,0.4,4.78,1.08c0.95,0.46,1.48,1.8,2.28,2.87c-1.77-0.11-3.35-0.61-4.57-0.15c-1.14,0.43-1.9,1.87-2.75,2.79
		c1.09,1.19,1.85,2.02,2.69,2.94c-0.36,0.3-0.67,0.77-0.96,0.76c-2.56-0.09-2.38,1.64-2.22,3.31c0.3,3.24,0.65,6.47,1.02,10.04
		c2.1,0,3.99,0.06,5.87-0.04c0.45-0.02,1.13-0.53,1.25-0.94c0.36-1.27,0.49-2.61,0.69-3.77c-2.14-0.48-4-0.89-5.85-1.3
		c-0.02-0.29-0.04-0.57-0.06-0.86c1.45-0.51,2.9-1.02,4.58-1.61c0.47-0.9,1.1-2.11,1.73-3.32c0.22,0,0.43,0,0.65-0.01
		c0.6,1.15,1.2,2.3,1.78,3.4c1.45,0.46,2.96,0.93,4.47,1.4c0.02,0.28,0.03,0.55,0.05,0.83c-1.8,0.48-3.61,0.96-5.82,1.55
		c0.16,1.17,0.29,2.62,0.62,4.02c0.08,0.33,0.8,0.66,1.27,0.73c4.17,0.6,4.79,0.21,5.34-3.95c0.27-2.06,0.38-4.23,0.03-6.26
		c-0.67-3.98-3.29-5.08-6.77-3.13c-0.34-2.17,1.05-4.09,3.33-4.61c3.83-0.88,5.52,0.62,7.43,7.05c0.78-1.45,1.6-2.45,1.87-3.58
		c0.6-2.49,1.84-4.25,4.27-5.27c1.07-0.45,1.91-1.44,3.2-2.45c-0.69,1.88-1.27,3.46-1.85,5.04c-2.73,7.31-5.5,14.61-8.17,21.95
		c-0.41,1.13-0.87,1.63-2.13,1.63c-14.49-0.04-28.98-0.01-43.47-0.06c-0.57,0-1.49-0.48-1.67-0.95
		C180.36,56.37,176.98,47.28,173.59,38.17z M207.49,35.62c0.63-1.29,1.48-2.37,1.64-3.53c0.21-1.5-0.48-2.87-1.98-3.61
		C204.85,30.99,204.85,32.79,207.49,35.62z M207.28,65.35c2.22-3.26,2.21-3.77-0.07-6.31C205.11,62,205.11,62.07,207.28,65.35z
		 M200.31,65.2c0.25-0.03,0.5-0.06,0.75-0.08c-0.1-1.29-0.21-2.59-0.31-3.88c-0.2,0.02-0.4,0.03-0.6,0.05
		C198.87,63.47,198.87,63.47,200.31,65.2z M214.33,61.35c-1.5,1.86-1.5,1.86-0.05,3.83C215.79,63.38,215.79,63.37,214.33,61.35z"/>
	<path class="st1" d="M190.48,148.97c-0.27,0.34-0.9,1.12-1.52,1.89c-1.25,1.56-2.77,2.54-4.87,2.53c-6.19-0.03-12.38-0.03-18.57,0
		c-2.26,0.01-3.86-1.07-5.15-2.8c-0.52-0.7-1.11-1.34-1.8-2.15c2.38,0.07,2.56-1.72,3.06-3.4c4.14-13.77,8.34-27.52,12.5-41.29
		c0.33-1.1,0.95-2.44-1.4-2.77c5.84,1.83,10.41-0.85,15.14-2.9c5.74-2.48,11.46-2.68,17.04,0.57c0.22,0.13,0.51,0.14,1.56,0.41
		c-0.62-1.49-0.82-2.68-1.5-3.43c-1.51-1.66-1.87-3.37-1.04-5.42c1.01-2.51,1.99-5.04,3.18-8.04c1.26,3.51,2.57,6.59,3.41,9.79
		c0.25,0.96-0.78,2.28-1.28,3.41c-0.45,1.02-0.98,2.01-1.47,3.01c0.19,0.16,0.38,0.31,0.57,0.47c0.46-0.16,0.94-0.28,1.37-0.5
		c5.23-2.78,10.53-2.79,15.91-0.49c1.75,0.75,3.45,1.59,5.22,2.28c3.32,1.29,6.72,1.95,10.42,0.68c-1.95,0.69-1.49,1.82-1.09,3.15
		c4.07,13.57,8.05,27.16,12.16,40.72c0.47,1.56,0.42,3.91,3.41,3.64c-0.6,0.53-1.09,0.79-1.3,1.2c-1.9,3.55-5.1,4.05-8.7,3.96
		c-5.03-0.12-10.07-0.08-15.1-0.06c-2.62,0.01-4.57-1.02-5.94-3.25c-0.38-0.61-0.97-1.1-1.6-1.79c1.94,0.05,2.45-1.18,2.91-2.71
		c4.22-14.18,8.5-28.33,12.76-42.49c0.09-0.3,0.17-0.61,0.31-1.15c-5.13,0.85-9.69-0.79-14.3-2.21c-4.6-1.42-9-0.99-13.06,1.79
		c-1.06,0.72-1.72,1.44-1.69,2.95c0.03,1.53-0.6,3.07-1,4.91c0.19,0.12,0.78,0.5,0.95,0.61c-0.34,1.33-0.84,2.39-0.84,3.46
		c-0.06,9.12-0.02,18.24-0.04,27.35c0,1.38,1.07,2.71,0.07,4.2c-0.14,0.21,1,1.26,1.62,2.02c-2.44,1.44-1.64,3.96-1.62,6.07
		c0.02,2.15-1.07,4.61,1,6.5c-1.11,1.25-1.26,3.52-0.48,5.08c0.31,0.61,0.59,1.67,0.28,2.08c-1.61,2.17,0.08,3.29,1.35,4.66
		c-1.25,1.13-0.71,1.87,0.57,2.35c2.22,0.84,4.5,1.53,6.66,2.5c1.04,0.47,1.85,1.43,2.76,2.17c-0.96,0.66-1.84,1.67-2.9,1.92
		c-7.38,1.78-14.82,1.78-22.23,0.14c-1.27-0.28-2.43-1.02-4.03-1.72c3.31-3.62,8.16-3.21,11.5-5.97c-0.3-0.48-0.55-0.89-0.85-1.37
		c1.38-1.33,2.85-2.63,1.29-4.82c-0.26-0.36,0.08-1.3,0.36-1.87c0.9-1.81,0.56-3.47-0.3-5.25c1.87-1.85,0.75-4.34,0.84-6.59
		c0.09-2.1,0.64-4.48-1.76-6c1.21-1.05,2.91-1.91,1.17-3.32c0.24-1.12,0.61-2.04,0.61-2.96c0.05-9.19,0.06-18.37,0-27.56
		c-0.01-0.91-0.56-1.81-0.95-2.99c0.21-0.13,0.76-0.48,0.95-0.61c-0.36-2.16-0.6-4.11-1.05-6.01c-0.15-0.64-0.72-1.28-1.27-1.69
		c-4.08-3.02-8.56-3.54-13.35-2.05c-2.27,0.71-4.53,1.53-6.86,1.96c-2.31,0.42-4.7,0.41-7.33,0.61c0.27,0.91,0.56,1.91,0.85,2.9
		c4.05,13.59,8.08,27.18,12.22,40.74C188.55,147.13,189.66,147.94,190.48,148.97z M187.94,147.6c-4.33-14.4-8.66-28.82-13.16-43.8
		c-4.51,15-8.84,29.42-13.16,43.8C170.46,147.6,179.13,147.6,187.94,147.6z M252.5,147.6c-4.38-14.54-8.71-28.94-13.18-43.79
		c-4.49,14.95-8.83,29.38-13.17,43.79C234.99,147.6,243.58,147.6,252.5,147.6z"/>
	<g>
		<g>
			<g>
				<path class="st0" d="M125.36,116.4c0,0-5.47,21.89,1.2,30.81c0,0-2.02-12.52-1.05-14.32c0,0,0.4,11.66,1.63,14.32
					C127.14,147.22,131.28,138.42,125.36,116.4z"/>
				<path class="st0" d="M127.57,153.56c0,0-4.71,5.26-12.77-9.77c0,0,11.01-1.32,12.94,9.07l-7.13-5.63L127.57,153.56z"/>
				<path class="st0" d="M129.21,152.32c0,0-2.61-10.52,7.37-19.77c0,0-0.67,16.95-6.43,20.3l1.41-6.02l-2.03,5.87L129.21,152.32z"
					/>
				<path class="st0" d="M130.37,165.6c0,0-4.65,5.02-12.71-10.01c0,0,11.01-1.32,12.94,9.07l-7.13-5.63L130.37,165.6z"/>
				<path class="st0" d="M132.07,164.12c0,0-2.61-10.52,7.37-19.77c0,0-0.67,16.95-6.43,20.3l1.41-6.02l-2.03,5.87L132.07,164.12z"
					/>
				<path class="st0" d="M134.73,175.61c0,0-4.33,5.55-13.44-8.87c0,0,10.88-2.1,13.56,8.12l-7.51-5.11L134.73,175.61z"/>
				<path class="st0" d="M136.27,174.22c0,0-3.36-10.31,5.94-20.24c0,0,0.54,16.96-4.97,20.71l0.98-6.11l-1.61,6L136.27,174.22z"/>
				<path class="st0" d="M140.21,185.82c0,0-5.28,5.28-16.08-7.92c0,0,12.15-2.59,16.06,7.23l-7.05-2.77L140.21,185.82z"/>
				<path class="st0" d="M141.52,184.34c0,0-4.59-9.82,3.43-20.82c0,0,4.09,18.02-2.4,21.16l0.23-6.18l-0.87,6.15L141.52,184.34z"/>
				<path class="st0" d="M146.58,195.1c0,0-6.37,4.69-17.41-6.38c0,0,12.88-3.88,17.45,5.65l-7.19-2.01L146.58,195.1z"/>
				<path class="st0" d="M147.89,193.47c0,0-5.26-9.48,1.98-21c0,0,5.44,17.11-0.93,21.28l-0.2-6.18l-0.44,6.2L147.89,193.47z"/>
				<path class="st0" d="M154.03,204.07c0,0-7.01,4.6-19.1-5.37c0,0,13.88-3.53,19.1,4.8l-7.81-1.71L154.03,204.07z"/>
				<path class="st0" d="M155.31,202.61c0,0-5.62-5.63,1.62-17.16c0,0,5.8,13.26-0.57,17.43l-0.2-6.18l-0.44,6.2L155.31,202.61z"/>
				<path class="st0" d="M162.52,210.85c0,0-8.41,5.26-20.21-3.25c0,0,14.72-3.43,20.15,2.76l-6.91-0.63L162.52,210.85z"/>
				<path class="st0" d="M163.92,209.32c0,0-6.21-2.81-0.45-15.14c0,0,7.33,10.36,1.52,15.29l-0.96-6.11l0.33,6.2L163.92,209.32z"/>
				<path class="st0" d="M171.54,217.38c0,0-7.99,5.87-20.4-1.72c0,0,14.42-4.53,20.3,1.24l-6.94-0.11L171.54,217.38z"/>
				<path class="st0" d="M172.91,215.32c0,0-7.21-2.87-0.45-15.14c0,0,8.8,11.35,1.52,15.29l-0.96-6.11l0.33,6.2L172.91,215.32z"/>
				<path class="st0" d="M182.14,222.88c0,0-9.41,6.37-22.8-0.13c0,0,16.48-5.76,22.68-0.34l-6.93,0.28L182.14,222.88z"/>
				<path class="st0" d="M193.99,227.85c0,0-10.83,5.83-25.24,0.51c0,0,18.92-6.41,25.12-0.99l-6.93,0.28L193.99,227.85z"/>
				<path class="st0" d="M182.66,221.43c0,0-7.21-2.87-0.45-15.14c0,0,9.66,11.73,1.52,15.29l-0.96-6.11l0.33,6.2L182.66,221.43z"/>
				<path class="st0" d="M194.39,225.43c0,0-8.76-0.7-2-12.98c0,0,12.12,9.21,3.08,13.12l-0.96-6.11l0.33,6.2L194.39,225.43z"/>
			</g>
			<g>
				<path class="st0" d="M289,116.4c0,0,5.47,21.89-1.2,30.81c0,0,2.02-12.52,1.05-14.32c0,0-0.4,11.66-1.63,14.32
					C287.22,147.22,283.07,138.42,289,116.4z"/>
				<path class="st0" d="M286.79,153.56c0,0,4.71,5.26,12.77-9.77c0,0-11.01-1.32-12.94,9.07l7.13-5.63L286.79,153.56z"/>
				<path class="st0" d="M285.15,152.32c0,0,2.61-10.52-7.37-19.77c0,0,0.67,16.95,6.43,20.3l-1.41-6.02l2.03,5.87L285.15,152.32z"
					/>
				<path class="st0" d="M283.99,165.6c0,0,4.65,5.02,12.71-10.01c0,0-11.01-1.32-12.94,9.07l7.13-5.63L283.99,165.6z"/>
				<path class="st0" d="M282.29,164.12c0,0,2.61-10.52-7.37-19.77c0,0,0.67,16.95,6.43,20.3l-1.41-6.02l2.03,5.87L282.29,164.12z"
					/>
				<path class="st0" d="M279.63,175.61c0,0,4.33,5.55,13.44-8.87c0,0-10.88-2.1-13.56,8.12l7.51-5.11L279.63,175.61z"/>
				<path class="st0" d="M278.09,174.22c0,0,3.36-10.31-5.94-20.24c0,0-0.54,16.96,4.97,20.71l-0.98-6.11l1.61,6L278.09,174.22z"/>
				<path class="st0" d="M274.14,185.82c0,0,5.28,5.28,16.08-7.92c0,0-12.15-2.59-16.06,7.23l7.05-2.77L274.14,185.82z"/>
				<path class="st0" d="M272.84,184.34c0,0,4.59-9.82-3.43-20.82c0,0-4.09,18.02,2.4,21.16l-0.23-6.18l0.87,6.15L272.84,184.34z"/>
				<path class="st0" d="M267.78,195.1c0,0,6.37,4.69,17.41-6.38c0,0-12.88-3.88-17.45,5.65l7.19-2.01L267.78,195.1z"/>
				<path class="st0" d="M266.47,193.47c0,0,5.26-9.48-1.98-21c0,0-5.44,17.11,0.93,21.28l0.2-6.18l0.44,6.2L266.47,193.47z"/>
				<path class="st0" d="M260.33,204.07c0,0,7.01,4.6,19.1-5.37c0,0-13.88-3.53-19.1,4.8l7.81-1.71L260.33,204.07z"/>
				<path class="st0" d="M259.05,202.61c0,0,5.62-5.63-1.62-17.16c0,0-5.8,13.26,0.57,17.43l0.2-6.18l0.44,6.2L259.05,202.61z"/>
				<path class="st0" d="M251.84,210.85c0,0,8.41,5.26,20.21-3.25c0,0-14.72-3.43-20.15,2.76l6.91-0.63L251.84,210.85z"/>
				<path class="st0" d="M250.44,209.32c0,0,6.21-2.81,0.45-15.14c0,0-7.33,10.36-1.52,15.29l0.96-6.11l-0.33,6.2L250.44,209.32z"/>
				<path class="st0" d="M242.82,217.38c0,0,7.99,5.87,20.4-1.72c0,0-14.42-4.53-20.3,1.24l6.94-0.11L242.82,217.38z"/>
				<path class="st0" d="M241.45,215.32c0,0,7.21-2.87,0.45-15.14c0,0-8.8,11.35-1.52,15.29l0.96-6.11l-0.33,6.2L241.45,215.32z"/>
				<path class="st0" d="M232.21,222.88c0,0,9.41,6.37,22.8-0.13c0,0-16.48-5.76-22.68-0.34l6.93,0.28L232.21,222.88z"/>
				<path class="st0" d="M220.37,227.85c0,0,10.83,5.83,25.24,0.51c0,0-18.92-6.41-25.12-0.99l6.93,0.28L220.37,227.85z"/>
				<path class="st0" d="M231.69,221.43c0,0,7.21-2.87,0.45-15.14c0,0-9.66,11.73-1.52,15.29l0.96-6.11l-0.33,6.2L231.69,221.43z"/>
				<path class="st0" d="M219.97,225.43c0,0,8.76-0.7,2-12.98c0,0-12.12,9.21-3.08,13.12l0.96-6.11l-0.33,6.2L219.97,225.43z"/>
			</g>
		</g>
		<path class="st0" d="M207.43,223.5l1.1,3.38c0.03,0.1,0.13,0.17,0.23,0.17h3.56c0.23,0,0.33,0.3,0.14,0.44l-2.88,2.09
			c-0.08,0.06-0.12,0.17-0.09,0.27l1.1,3.38c0.07,0.22-0.18,0.41-0.37,0.27l-2.88-2.09c-0.08-0.06-0.2-0.06-0.28,0l-2.88,2.09
			c-0.19,0.14-0.44-0.05-0.37-0.27l1.1-3.38c0.03-0.1,0-0.21-0.09-0.27l-2.88-2.09c-0.19-0.14-0.09-0.44,0.14-0.44h3.56
			c0.1,0,0.2-0.07,0.23-0.17l1.1-3.38C207.04,223.28,207.36,223.28,207.43,223.5z"/>
	</g>
	</g>
</svg>
